<?xml version="1.0" encoding="utf-8"?>

<svg width="800px" height="800px" viewBox="0 0 50.8 50.8" xmlns="http://www.w3.org/2000/svg">
<g stroke-linecap="round" stroke-linejoin="round" transform="translate(-.661 -.706) scale(.27193)">
    <!-- <rect x="0" y="0" width="100%" height="100%" fill="black"/> -->
    <g fill="#ffffff" stroke="#ffffff" stroke-width="11.676">
        <path d="M 56 80 C 50.667 69.333 53.333 61.333 64 56 C 69.333 34.667 82.667 24 104 24 C 125.333 24 136 37.333 136 64 C 149.333 101.333 152 128 144 144 C 170.667 160 173.333 168 152 168 C 141.333 168 133.333 165.333 128 160 L 130.499 157.501 C 120.499 162.5 106.333 163.333 88 160 L 83.269 158.107 C 79.319 164.702 72.896 168 64 168 C 42.948 168 34.88 162.806 39.796 152.418 L 32 152 C 21.333 125.333 24 114.667 40 120 L 41.752 122.342 C 40.665 108.228 45.414 94.114 56 80 Z"/>
    </g>
</g>

</svg>